<svg viewBox="0 0 200 200" xmlns="http://www.w3.org/2000/svg">
        <defs>
          <radialGradient id="v6-base" cx=".4" cy=".35" r=".75">
            <stop offset="0" stop-color="#ffe888"/>
            <stop offset=".5" stop-color="#dca838"/>
            <stop offset="1" stop-color="#4a2808"/>
          </radialGradient>
          <radialGradient id="v6-atm" cx=".5" cy=".5" r=".55">
            <stop offset=".82" stop-color="#ffa848" stop-opacity="0"/>
            <stop offset="1" stop-color="#ffa848" stop-opacity=".4"/>
          </radialGradient>
          <radialGradient id="v6-term" cx="1" cy=".55" r=".55">
            <stop offset="0" stop-color="#2a1808" stop-opacity=".4"/>
            <stop offset=".8" stop-color="#2a1808" stop-opacity="0"/>
          </radialGradient>
          <filter id="v6-tex" x="0" y="0"><feTurbulence type="fractalNoise" baseFrequency="1.6" numOctaves="3" seed="17"/><feColorMatrix values="0 0 0 0 .3  0 0 0 0 .1  0 0 0 0 0  0 0 0 .35 0"/></filter>
          <filter id="v6-spec" x="-20%" y="-20%" width="140%" height="140%"><feGaussianBlur in="SourceAlpha" stdDeviation="3"/><feSpecularLighting surfaceScale="3" specularConstant=".6" specularExponent="20" lighting-color="#fff0c0"><fePointLight x="55" y="48" z="170"/></feSpecularLighting><feComposite in2="SourceAlpha" operator="in"/></filter>
          <radialGradient id="v6-volc1" cx=".5" cy=".5" r=".5">
            <stop offset="0" stop-color="#ff5028"/><stop offset=".6" stop-color="#a02808"/><stop offset="1" stop-color="#3a0a04" stop-opacity="0"/>
          </radialGradient>
          <clipPath id="v6-clip"><circle cx="100" cy="100" r="78"/></clipPath>
        </defs>
        <circle cx="100" cy="100" r="94" fill="url(#v6-atm)"/>
        <circle cx="100" cy="100" r="78" fill="url(#v6-base)"/>
        <g clip-path="url(#v6-clip)">
          <rect width="200" height="200" filter="url(#v6-tex)" opacity=".5"/>
          <!-- dark volcanic patches (calderas / sulfur plains) — irregular blobs -->
          <path d="M 38,52 Q 50,42 64,50 Q 72,62 60,72 Q 46,76 36,68 Q 28,58 38,52 Z" fill="#3a1808" opacity=".7"/>
          <path d="M 86,40 Q 100,38 108,50 Q 110,62 96,66 Q 82,62 80,52 Q 78,42 86,40 Z" fill="#3a1808" opacity=".65"/>
          <path d="M 124,82 Q 140,78 146,92 Q 140,108 124,104 Q 112,98 116,86 Q 118,82 124,82 Z" fill="#3a1808" opacity=".7"/>
          <path d="M 56,124 Q 72,118 84,128 Q 86,142 70,148 Q 52,142 50,132 Q 50,126 56,124 Z" fill="#3a1808" opacity=".7"/>
          <path d="M 100,148 Q 116,144 124,156 Q 122,168 108,168 Q 96,164 96,156 Q 96,150 100,148 Z" fill="#3a1808" opacity=".65"/>
          <!-- active volcano hotspots (red-orange glow) -->
          <circle cx="50" cy="60" r="6" fill="url(#v6-volc1)"/>
          <circle cx="50" cy="60" r="1.8" fill="#ff8038"/>
          <circle cx="130" cy="92" r="5" fill="url(#v6-volc1)"/>
          <circle cx="130" cy="92" r="1.5" fill="#ff8038"/>
          <circle cx="68" cy="134" r="4.5" fill="url(#v6-volc1)"/>
          <circle cx="68" cy="134" r="1.3" fill="#ff8038"/>
          <!-- sulfur yellow lighter patches -->
          <ellipse cx="148" cy="58" rx="10" ry="6" fill="#fff8b0" opacity=".5" transform="rotate(-15 148 58)"/>
          <ellipse cx="38" cy="100" rx="8" ry="5" fill="#fff8b0" opacity=".45"/>
          <ellipse cx="156" cy="140" rx="9" ry="5" fill="#fff8b0" opacity=".5"/>
          <!-- a few craters -->
          <g fill="#2a1808" opacity=".5">
            <circle cx="100" cy="80" r="1.8"/><circle cx="120" cy="125" r="1.5"/>
            <circle cx="44" cy="148" r="1.4"/>
          </g>
          <circle cx="100" cy="100" r="78" fill="url(#v6-term)"/>
        </g>
        <circle cx="100" cy="100" r="78" fill="#fff" filter="url(#v6-spec)" opacity=".55" style="mix-blend-mode:screen"/>
      </svg>
